<svg xmlns="http://www.w3.org/2000/svg" viewBox="0 0 64 64"><rect x="12" y="6" width="40" height="52" rx="3" fill="none" stroke="#2563eb" stroke-width="2.5"/><rect x="16" y="10" width="32" height="10" fill="#2563eb" opacity="0.2"/><line x1="20" y1="26" x2="20" y2="26" stroke="#2563eb" stroke-width="4"/><line x1="28" y1="26" x2="28" y2="26" stroke="#2563eb" stroke-width="4"/><line x1="36" y1="26" x2="36" y2="26" stroke="#2563eb" stroke-width="4"/><line x1="44" y1="26" x2="44" y2="26" stroke="#2563eb" stroke-width="4"/><circle cx="20" cy="34" r="2" fill="#2563eb"/><circle cx="28" cy="34" r="2" fill="#2563eb"/><circle cx="36" cy="34" r="2" fill="#2563eb"/><circle cx="44" cy="34" r="2" fill="#ef4444"/><circle cx="20" cy="42" r="2" fill="#2563eb"/><circle cx="28" cy="42" r="2" fill="#2563eb"/><circle cx="36" cy="42" r="2" fill="#2563eb"/><circle cx="44" cy="42" r="2" fill="#ef4444"/><circle cx="20" cy="50" r="2" fill="#2563eb"/><circle cx="28" cy="50" r="2" fill="#2563eb"/><circle cx="36" cy="50" r="2" fill="#2563eb"/><circle cx="44" cy="50" r="2" fill="#ef4444"/></svg>
